<svg xmlns="http://www.w3.org/2000/svg" viewBox="0 0 250 250"><defs><style>.cls-1{opacity:0.21;}.cls-2{fill:none;stroke-width:8px;}.cls-2,.cls-3{stroke:#1d1d1b;stroke-miterlimit:10;}.cls-3{fill:#1d1d1b;}</style></defs><g id="Laag_5" data-name="Laag 5"><g class="cls-1"><path d="M220.21,148.65a95.11,95.11,0,0,0-93.68-95c2.44.57,64.16,15.77,64.16,97.59,0,80.55-59.82,91.77-64,92.46l0,0A95.13,95.13,0,0,0,220.21,148.65Z"/><path d="M60.75,151.21C60.75,67.73,125,53.6,125,53.6a95,95,0,0,0-.94,190.09l-.19-.18C115.3,241.83,60.75,228.13,60.75,151.21Z"/><path d="M126.53,53.62l-.09,0,0,0Z"/><path d="M132.36,238.79l-5.42,4.66A22.83,22.83,0,0,0,132.36,238.79Z"/><path d="M126.49,53.62h0l10.88,11.7C131.86,56.28,127,53.83,126.49,53.62Z"/><path d="M121.69,241.39l-2.13-2.08A28.74,28.74,0,0,0,121.69,241.39Z"/><path d="M114.1,65.32l12.33-11.7-1.43,0S119.87,55.82,114.1,65.32Z"/><path d="M129.46,236.52l6.44-2.29c7.7-11.37,17.3-35.57,17.3-85.58,0-46.92-8.45-71.13-15.86-83.33l-7.19-3.2a9.66,9.66,0,0,0-7.48-.17l-8.57,3.37c-7.4,12.2-15.86,36.41-15.86,83.33,0,49.72,9.5,73.93,17.17,85.39l5.76,2.32A11.83,11.83,0,0,0,129.46,236.52Z"/><ellipse cx="125" cy="38.66" rx="14.82" ry="14.8"/><path d="M126.46,53.62l0,0v0Z"/><path d="M126.44,243.71l0,0-1.49,0-.94,0,1.22,1.18,1.38-1.18h-.09Z"/><path d="M126.49,243.69h.08l.11,0,.26-.22Z"/><path d="M138.94,233.15l-3,1.08a42.25,42.25,0,0,1-3.54,4.56Z"/><path d="M113.22,233.15l6.34,6.16a41.3,41.3,0,0,1-4.15-5.27Z"/><path d="M123.87,243.51c.73.14,1.13.2,1.13.2a14.69,14.69,0,0,1-3.31-2.32Z"/></g><ellipse class="cls-2" cx="125" cy="147.92" rx="95.21" ry="95.05"/><path class="cls-2" d="M125,52.86S98.24,64.44,98.24,147.92,125,243,125,243"/><path class="cls-2" d="M126.44,52.86s26.76,11.58,26.76,95.06S126.44,243,126.44,243"/><path class="cls-2" d="M126.44,52.86S190.69,67,190.69,150.47,126.44,243,126.44,243"/><path class="cls-2" d="M125,243s-64.25-9-64.25-92.5S125,52.86,125,52.86"/><line class="cls-2" x1="32.98" y1="123.44" x2="217.02" y2="123.44"/><line class="cls-2" x1="33.85" y1="175.46" x2="216.15" y2="175.46"/><line class="cls-2" x1="56.23" y1="213.66" x2="193.77" y2="213.66"/><line class="cls-2" x1="56.23" y1="82.18" x2="193.77" y2="82.18"/><ellipse class="cls-2" cx="125" cy="37.93" rx="14.82" ry="14.8"/><line class="cls-2" x1="125" y1="39.69" x2="125" y2="5.13"/><path class="cls-3" d="M114.1,64.59l8.57-3.37a9.61,9.61,0,0,1,7.48.16l7.19,3.21-10.9-11.73Z"/><path class="cls-3" d="M138.94,232.42l-9.48,3.37a11.75,11.75,0,0,1-8.28-.17l-8-3.2,12.06,11.72Z"/></g></svg>